<svg width="1024" height="1024" viewBox="0 0 1024 1024" fill="none" xmlns="http://www.w3.org/2000/svg">
<path d="M523.396 118.226C551.281 116.856 583.536 121.821 610.081 130C679.086 150.945 733.846 200.296 766.436 264.175C791.946 314.186 800.746 365.225 806.081 420.434C808.496 444.594 810.551 468.789 812.251 493.014C818.901 582.729 823.676 672.434 818.586 762.369C817.291 784.744 817.411 806.314 810.986 827.959C798.886 868.729 759.896 900.469 717.851 878.104C708.891 873.334 701.651 868.454 691.826 865.099C673.076 858.689 665.606 876.114 654.581 887.054C628.701 913.414 583.586 909.764 556.191 887.964C538.951 874.249 532.711 856.274 506.576 870.034C497.061 875.539 493.246 880.844 485.346 886.374C470.491 896.774 451.956 904.734 433.834 905.674C406.599 906.964 380.239 895.884 362.105 875.524C356.664 869.534 352.943 862.239 346.951 856.794C330.705 842.039 309.757 860.184 294.16 867.029C286.484 870.369 278.274 872.314 269.916 872.774C233.11 874.789 203.925 848.874 203.021 812.224C202.628 796.304 207.964 780.369 211.899 765.029C215.276 752.299 218.466 739.524 221.469 726.699C229.752 692.759 236.554 658.474 241.855 623.939C248.472 582.764 253.153 541.299 255.885 499.679C256.405 490.929 257.344 480.884 257.353 472.224C257.443 375.845 269.867 280.167 337.034 205.633C386.452 150.795 449.151 121.408 523.396 118.226Z" fill="#483C84"/>
<path d="M419.965 161.596C477.996 131.992 545.386 126.565 607.406 146.502C658.056 162.88 701.931 195.437 732.281 239.171C738.736 248.477 744.346 258.53 749.686 268.503C751.466 271.35 753.966 276.27 755.216 279.407C786.446 346.904 789.061 407.539 794.941 480.144C796.591 500.489 799.201 527.659 799.516 547.454C801.031 561.444 801.456 582.134 802.026 596.449C804.666 650.164 804.666 703.979 802.031 757.694C801.006 779.424 800.716 804.969 794.066 825.504C788.846 841.644 778.016 857.859 762.316 865.394C736.701 877.689 719.821 856.599 698.411 849.354C692.516 847.314 686.266 846.514 680.051 847.004C653.831 849.049 651.411 874.449 629.901 884.159C620.551 888.379 613.406 889.584 603.301 889.004C580.281 887.689 567.546 875.539 551.761 860.899C547.661 857.094 540.551 851.934 534.976 850.314C502.836 840.974 487.056 868.294 462.421 880.624C432.567 895.569 401.065 890.424 377.659 867.079C366.868 856.319 359.357 840.834 344.185 836.239C325.53 830.944 306.932 841.274 290.867 849.989C268.837 862.349 237.058 855.969 225.135 832.689C214.284 811.499 224.69 780.969 230.326 759.369C234.774 742.554 238.921 725.659 242.764 708.694C257.013 644.724 266.67 579.819 271.663 514.474C276.845 445.444 271.886 377.512 295.112 310.49C316.189 249.674 361.355 190.421 419.965 161.596Z" fill="#EBEDF9"/>
<path d="M799.516 547.454C801.031 561.444 801.456 582.134 802.026 596.449C804.666 650.164 804.666 703.979 802.031 757.694C801.006 779.424 800.716 804.969 794.066 825.504C788.846 841.644 778.016 857.859 762.316 865.394C736.701 877.689 719.821 856.599 698.411 849.354C692.516 847.314 686.266 846.514 680.051 847.004C653.831 849.049 651.411 874.449 629.901 884.159C620.551 888.379 613.406 889.584 603.301 889.004C580.281 887.689 567.546 875.539 551.761 860.899C547.661 857.094 540.551 851.934 534.976 850.314C502.836 840.974 487.056 868.294 462.421 880.624C432.567 895.569 401.065 890.424 377.659 867.079C366.868 856.319 359.357 840.834 344.185 836.239C325.53 830.944 306.932 841.274 290.867 849.989C268.837 862.349 237.058 855.969 225.135 832.689C214.284 811.499 224.69 780.969 230.326 759.369C234.774 742.554 238.921 725.659 242.764 708.694C257.013 644.724 266.67 579.819 271.663 514.474C276.845 445.444 271.886 377.511 295.112 310.49C316.189 249.673 361.355 190.421 419.965 161.595C417.747 166.297 398.842 181.507 393.714 186.933C350.228 232.934 326.182 295.049 318.951 357.433C310.647 429.079 312.234 502.204 309.278 574.159C308.005 601.119 305.451 628.004 301.626 654.724C299.679 668.654 296.661 683.304 293.603 698.209C287.709 727.109 274.595 759.119 280.433 788.839C281.495 794.249 287.169 799.674 291.865 802.184C316.965 815.624 337.217 784.124 361.218 794.969C369.407 798.674 375.174 809.234 381.065 815.689C397.777 835.294 420.993 846.714 446.606 839.249C463.221 835.124 474.846 823.014 488.191 813.994C499.941 807.289 520.341 801.449 532.616 809.249C557.281 824.919 578.251 861.224 612.306 851.114C636.556 843.799 646.781 814.569 668.016 803.114C677.556 797.969 692.011 804.249 701.301 807.644C726.776 816.944 754.356 815.284 768.781 788.209C771.431 783.259 773.346 777.954 774.461 772.449C775.766 765.929 776.211 750.614 776.661 743.494L780.681 683.519C781.206 674.349 781.866 652.934 783.321 644.739C761.721 659.289 731.986 667.719 706.286 662.104C690.261 658.599 672.276 651.609 659.721 640.979C660.176 638.449 660.771 635.744 661.286 633.209C702.196 655.949 746.586 659.474 783.641 626.904C788.896 622.284 801.356 611.514 786.766 605.519C782.196 603.644 774.786 612.724 771.156 616.039C768.821 618.144 766.346 620.084 763.751 621.854C745.031 634.569 725.786 637.034 703.561 632.839C683.081 628.974 658.626 616.869 646.136 599.529C641.886 593.634 638.841 583.189 640.311 575.904C640.251 577.344 640.036 579.779 641.026 580.839C664.896 606.339 711.711 622.614 745.281 610.829C764.261 604.169 779.951 589.979 789.226 572.924C793.671 564.754 798.041 556.374 799.516 547.454Z" fill="#D9D6EC"/>
<path d="M652.916 372.491C653.361 369.794 652.741 364.803 653.516 362.967C653.531 362.913 653.546 362.858 653.556 362.804C653.636 363.031 653.716 363.257 653.796 363.484L653.746 363.409C653.816 364.164 653.901 364.911 654.006 365.662C653.971 367.535 655.266 375.169 652.916 372.491Z" fill="#EBEDF9"/>
<path d="M487.303 316.715C450.688 312.629 446.458 369.09 467.762 388.064C470.211 390.245 472.55 391.413 475.468 392.857C511.484 396.993 520.145 333.174 487.303 316.715Z" fill="#483C84"/>
<path d="M687.245 322.147C651.607 318.562 644.877 386.816 678.837 399.274C714.729 400.044 719.16 334.427 687.245 322.147Z" fill="#483C84"/>
<path d="M736.216 401.898C749.301 402.003 764.901 402.73 775.201 411.949C779.096 415.434 778.021 421.414 773.931 424.259C762.661 432.284 744.906 433.349 731.716 431.934C723.891 431.094 708.466 428.244 703.691 421.594C695.546 410.249 720.356 403.519 726.971 402.62C730.256 402.119 732.906 402.038 736.216 401.898Z" fill="#E4A8B4"/>
<path d="M433.687 408.699C443.652 407.004 466.441 409.739 474.341 416.449C493.266 432.509 458.956 440.244 448.641 441.174C436.311 442.599 418.942 440.614 407.95 434.199C403.053 431.344 398.866 425.044 403.248 419.884C410.109 411.804 423.749 409.889 433.687 408.699Z" fill="#E4A8B4"/>
<path d="M529.226 536.869C532.481 524.694 534.631 512.194 537.526 499.834C541.196 484.174 541.001 467.329 557.006 458.549C566.511 453.334 572.881 454.394 583.431 454.419L609.046 454.459L647.436 454.474C662.601 454.459 680.831 451.494 691.276 464.964C700.681 477.089 695.716 491.114 692.936 504.649C690.586 516.069 688.206 527.154 686.351 538.709C710.771 539.774 728.081 532.854 744.501 514.299C746.711 511.799 749.341 508.589 753.041 508.389C757.071 507.944 761.356 512.929 760.486 516.714C758.496 525.379 747.771 533.824 741.021 539.059C728.451 548.809 711.096 555.409 695.031 554.469C675.526 553.324 645.906 550.859 640.311 575.904C638.841 583.189 641.886 593.634 646.136 599.529C658.626 616.869 683.081 628.974 703.561 632.839C725.786 637.034 745.031 634.569 763.751 621.854C766.346 620.084 768.821 618.144 771.156 616.039C774.786 612.724 782.196 603.644 786.766 605.519C801.356 611.514 788.896 622.284 783.641 626.904C746.586 659.474 702.196 655.949 661.286 633.209C660.771 635.744 660.176 638.449 659.721 640.979C658.296 648.334 657.361 652.744 652.961 658.884C642.581 673.359 627.841 672.389 612.041 672.314L584.681 672.209L554.746 672.374C537.856 672.529 522.051 674.969 511.431 658.849C511.006 658.214 510.596 657.564 510.206 656.904C507.801 650.574 507.551 649.394 507.426 642.634C499.731 645.459 491.451 648.584 483.461 650.789C441.187 662.454 395.24 658.719 356.488 637.679C347.364 631.699 333.171 624.254 328.708 613.869C327.497 611.054 330.645 604.944 334.353 604.714C341.443 604.279 346.263 611.374 351.432 615.209C377.859 634.814 414.764 643.334 447.341 640.819C479.771 637.714 517.536 625.794 539.026 600.484C546.336 591.879 550.181 583.369 549.131 572.124C547.736 565.529 545.051 560.889 539.101 557.234C519.586 545.239 496.221 556.829 475.436 557.904C445.621 559.439 416.304 545.609 395.729 524.449C392.835 521.469 389.64 517.549 388.399 513.529C386.814 507.474 394.03 500.349 399.8 504.859C404.425 509.014 407.7 514.939 412.76 518.849C432.094 535.219 455.201 544.084 480.651 541.164C498.011 539.169 511.936 534.224 529.226 536.869Z" fill="#483C84"/>
<path d="M568.821 475.124C589.361 474.474 613.481 475.049 634.386 475.019L657.166 474.994C661.771 474.989 666.771 474.879 671.336 475.364C674.766 475.734 676.496 478.454 678.411 481.064C678.221 488.819 675.231 501.239 673.566 509.079C671.466 518.989 669.501 528.929 667.671 538.889C667.351 538.894 667.031 538.904 666.716 538.909C654.611 539.334 643.156 544.499 634.816 553.284C627.526 560.879 623.636 571.109 624.041 581.629C624.716 598.254 633.631 610.459 645.276 621.309C643.481 631.639 642.831 643.479 634.761 649.704C627.226 653.394 615.941 652.244 607.421 652.304C592.551 652.419 577.676 652.394 562.806 652.224C553.726 652.199 542.276 652.964 533.301 651.959C530.316 651.624 527.986 647.904 526.481 645.469C526.391 639.519 526.611 637.154 528.236 631.434C536.621 622.384 547.366 617.614 555.111 606.219C570.826 583.104 570.636 560.949 547.141 543.899C549.511 527.364 554.481 510.619 557.376 494.124C558.911 485.374 559.506 478.724 568.821 475.124Z" fill="#D9D6EC"/>
<path d="M573.726 488.574C575.991 488.514 590.311 488.169 592.011 488.819C596.946 490.694 597.301 497.139 591.316 499.849C588.686 499.914 574.636 500.474 573.176 499.874C566.596 497.179 567.891 491.169 573.726 488.574Z" fill="#483C84"/>
<path d="M549.131 572.124C550.181 583.369 546.336 591.879 539.026 600.484C517.536 625.794 479.771 637.714 447.341 640.819C414.764 643.334 377.859 634.814 351.432 615.209C346.263 611.374 341.443 604.279 334.353 604.714C330.645 604.944 327.497 611.054 328.708 613.869C333.171 624.254 347.364 631.699 356.488 637.679C395.24 658.719 441.187 662.454 483.461 650.789C491.451 648.584 499.731 645.459 507.426 642.634C507.551 649.394 507.801 650.574 510.206 656.904C507.661 656.124 508.591 656.684 506.701 654.724C504.536 654.949 494.246 659.004 491.501 659.969C485.551 662.064 479.496 663.859 473.366 665.344C426.67 676.439 336.754 666.869 322.214 610.169C318.922 597.334 324.192 589.594 336.935 586.844C342.374 590.329 347.722 595.899 353.86 599.489C373.397 610.929 400.155 618.494 422.645 620.849C452.171 623.444 483.506 615.974 510.521 604.419C519.146 600.724 548.281 581.359 549.131 572.124Z" fill="#D9D6EC"/>
<path d="M632.3 424.51C635.3 399.01 606.8 380.51 580.8 381.01C539.3 383.51 515.8 417.01 530.3 433.51C544.8 450.01 558.8 439.01 588.3 433.51C617.8 428.01 629.3 450.01 632.3 424.51Z" fill="#483C84"/>
<path d="M570.112 408.093C587.312 406.893 599.279 417.593 603.112 423.093C603.112 423.093 586.112 421.593 571.612 424.593C559.129 427.176 543.862 433.093 543.112 428.593C542.029 422.093 548.612 409.593 570.112 408.093Z" fill="#E4A8B4"/>
<ellipse cx="487" cy="368" rx="7" ry="9" fill="#EBEDF9"/>
<ellipse cx="678" cy="377" rx="7" ry="9" fill="#EBEDF9"/>
</svg>
